PathFileType	4	(X/Y/Z)	C:/Users/Carlo/Dropbox/Carlos/SARAH/CongressoMarcha2025/WorkshopOpenSim/C3D/Caso03/pyCGM2 Walking02.c3d.trc
DataRate	CameraRate	NumFrames	NumMarkers	Units	OrigDataRate	OrigDataStartFrame	OrigNumFrames
100.000000	100.000000	2	163	mm	100.000000	127	510
Frame#	Time	PELO			PELA			PELL			PELP			LFEO			LFEA			LFEL			LFEP			LTIO			LTIA			LTIL			LTIP			LFOO			LFOA			LFOL			LFOP			LTOO			LTOA			LTOL			LTOP			RFEO			RFEA			RFEL			RFEP			RTIO			RTIA			RTIL			RTIP			RFOO			RFOA			RFOL			RFOP			RTOO			RTOA			RTOL			RTOP			PELVIS_CGM_2.3O			PELVIS_CGM_2.3A			PELVIS_CGM_2.3L			PELVIS_CGM_2.3P			LFEMUR_CGM_2.3O			LFEMUR_CGM_2.3A			LFEMUR_CGM_2.3L			LFEMUR_CGM_2.3P			LTIBIA_CGM_2.3O			LTIBIA_CGM_2.3A			LTIBIA_CGM_2.3L			LTIBIA_CGM_2.3P			LFOOT_CGM_2.3O			LFOOT_CGM_2.3A			LFOOT_CGM_2.3L			LFOOT_CGM_2.3P			LTOES_CGM_2.3O			LTOES_CGM_2.3A			LTOES_CGM_2.3L			LTOES_CGM_2.3P			RFEMUR_CGM_2.3O			RFEMUR_CGM_2.3A			RFEMUR_CGM_2.3L			RFEMUR_CGM_2.3P			RTIBIA_CGM_2.3O			RTIBIA_CGM_2.3A			RTIBIA_CGM_2.3L			RTIBIA_CGM_2.3P			RFOOT_CGM_2.3O			RFOOT_CGM_2.3A			RFOOT_CGM_2.3L			RFOOT_CGM_2.3P			RTOES_CGM_2.3O			RTOES_CGM_2.3A			RTOES_CGM_2.3L			RTOES_CGM_2.3P			LASI			RASI			LPSI			RPSI			LTHI			LTHAP			LTHAD			LKNE			LTIB			LTIAP			LTIAD			LANK			LHEE			LTOE			RTHI			RTHAP			RTHAD			RKNE			RTIB			RTIAP			RTIAD			RANK			RHEE			RTOE			LHipAngles			LKneeAngles			LAbsAnkleAngle			LAnkleAngles			RHipAngles			RKneeAngles			RAnkleAngles			RAbsAnkleAngle			LPelvisAngles			RPelvisAngles			LFootProgressAngles			RFootProgressAngles			LHipAngles_CGM_2.3			LKneeAngles_CGM_2.3			LAnkleAngles_CGM_2.3			RHipAngles_CGM_2.3			RKneeAngles_CGM_2.3			RAnkleAngles_CGM_2.3			LFootProgressAngles_CGM_2.3			RFootProgressAngles_CGM_2.3			LPelvisAngles_CGM_2.3			RPelvisAngles_CGM_2.3			LHipPower			LKneePower			LAnklePower			RHipPower			RKneePower			RAnklePower			LHipPower_CGM_2.3			LKneePower_CGM_2.3			LAnklePower_CGM_2.3			RHipPower_CGM_2.3			RKneePower_CGM_2.3			RAnklePower_CGM_2.3			RGroundReactionForce			RNormalisedGRF			LAnkleForce			RAnkleForce			RKneeForce			LKneeForce			RHipForce			LHipForce			LHipForce_CGM_2.3			LKneeForce_CGM_2.3			LAnkleForce_CGM_2.3			RHipForce_CGM_2.3			RKneeForce_CGM_2.3			RAnkleForce_CGM_2.3			RGroundReactionMoment			LAnkleMoment			RAnkleMoment			RKneeMoment			LKneeMoment			RHipMoment			LHipMoment			LHipMoment_CGM_2.3			LKneeMoment_CGM_2.3			LAnkleMoment_CGM_2.3			RHipMoment_CGM_2.3			RKneeMoment_CGM_2.3			RAnkleMoment_CGM_2.3			LHJC_CGM_2.3			LKJC_CGM_2.3			RHJC_CGM_2.3			RKJC_CGM_2.3			LAJC_CGM_2.3			RAJC_CGM_2.3			
		X1	Y1	Z1	X2	Y2	Z2	X3	Y3	Z3	X4	Y4	Z4	X5	Y5	Z5	X6	Y6	Z6	X7	Y7	Z7	X8	Y8	Z8	X9	Y9	Z9	X10	Y10	Z10	X11	Y11	Z11	X12	Y12	Z12	X13	Y13	Z13	X14	Y14	Z14	X15	Y15	Z15	X16	Y16	Z16	X17	Y17	Z17	X18	Y18	Z18	X19	Y19	Z19	X20	Y20	Z20	X21	Y21	Z21	X22	Y22	Z22	X23	Y23	Z23	X24	Y24	Z24	X25	Y25	Z25	X26	Y26	Z26	X27	Y27	Z27	X28	Y28	Z28	X29	Y29	Z29	X30	Y30	Z30	X31	Y31	Z31	X32	Y32	Z32	X33	Y33	Z33	X34	Y34	Z34	X35	Y35	Z35	X36	Y36	Z36	X37	Y37	Z37	X38	Y38	Z38	X39	Y39	Z39	X40	Y40	Z40	X41	Y41	Z41	X42	Y42	Z42	X43	Y43	Z43	X44	Y44	Z44	X45	Y45	Z45	X46	Y46	Z46	X47	Y47	Z47	X48	Y48	Z48	X49	Y49	Z49	X50	Y50	Z50	X51	Y51	Z51	X52	Y52	Z52	X53	Y53	Z53	X54	Y54	Z54	X55	Y55	Z55	X56	Y56	Z56	X57	Y57	Z57	X58	Y58	Z58	X59	Y59	Z59	X60	Y60	Z60	X61	Y61	Z61	X62	Y62	Z62	X63	Y63	Z63	X64	Y64	Z64	X65	Y65	Z65	X66	Y66	Z66	X67	Y67	Z67	X68	Y68	Z68	X69	Y69	Z69	X70	Y70	Z70	X71	Y71	Z71	X72	Y72	Z72	X73	Y73	Z73	X74	Y74	Z74	X75	Y75	Z75	X76	Y76	Z76	X77	Y77	Z77	X78	Y78	Z78	X79	Y79	Z79	X80	Y80	Z80	X81	Y81	Z81	X82	Y82	Z82	X83	Y83	Z83	X84	Y84	Z84	X85	Y85	Z85	X86	Y86	Z86	X87	Y87	Z87	X88	Y88	Z88	X89	Y89	Z89	X90	Y90	Z90	X91	Y91	Z91	X92	Y92	Z92	X93	Y93	Z93	X94	Y94	Z94	X95	Y95	Z95	X96	Y96	Z96	X97	Y97	Z97	X98	Y98	Z98	X99	Y99	Z99	X100	Y100	Z100	X101	Y101	Z101	X102	Y102	Z102	X103	Y103	Z103	X104	Y104	Z104	X105	Y105	Z105	X106	Y106	Z106	X107	Y107	Z107	X108	Y108	Z108	X109	Y109	Z109	X110	Y110	Z110	X111	Y111	Z111	X112	Y112	Z112	X113	Y113	Z113	X114	Y114	Z114	X115	Y115	Z115	X116	Y116	Z116	X117	Y117	Z117	X118	Y118	Z118	X119	Y119	Z119	X120	Y120	Z120	X121	Y121	Z121	X122	Y122	Z122	X123	Y123	Z123	X124	Y124	Z124	X125	Y125	Z125	X126	Y126	Z126	X127	Y127	Z127	X128	Y128	Z128	X129	Y129	Z129	X130	Y130	Z130	X131	Y131	Z131	X132	Y132	Z132	X133	Y133	Z133	X134	Y134	Z134	X135	Y135	Z135	X136	Y136	Z136	X137	Y137	Z137	X138	Y138	Z138	X139	Y139	Z139	X140	Y140	Z140	X141	Y141	Z141	X142	Y142	Z142	X143	Y143	Z143	X144	Y144	Z144	X145	Y145	Z145	X146	Y146	Z146	X147	Y147	Z147	X148	Y148	Z148	X149	Y149	Z149	X150	Y150	Z150	X151	Y151	Z151	X152	Y152	Z152	X153	Y153	Z153	X154	Y154	Z154	X155	Y155	Z155	X156	Y156	Z156	X157	Y157	Z157	X158	Y158	Z158	X159	Y159	Z159	X160	Y160	Z160	X161	Y161	Z161	X162	Y162	Z162	X163	Y163	Z163	

128	1.27	-1742.713012695313	887.738403320313	-84.43784332275393	-1581.439575195313	872.4463500976567	-90.9421310424805	-1749.191894531251	888.3142700195317	-246.4346008300782	-1727.410156250001	1049.141967773438	-84.47609710693362	-1824.345458984376	478.4002990722659	-143.8360290527344	-1438.00927734375	399.675964355469	-278.3709411621095	-1960.503540039063	483.0036621093752	-537.5270996093752	-1748.463012695313	887.4653320312505	-165.296859741211	-1929.837768554688	82.66679382324222	-94.44035339355472	-1572.991210937501	-27.38946533203126	-214.0527648925782	-2057.760742187501	70.52565002441409	-464.9093017578127	-1829.562133789063	458.8305664062502	-141.3933410644532	-1801.966186523438	63.74866485595706	-110.625473022461	-1794.835815429688	244.2730712890626	-132.1702117919922	-1811.092651367188	42.5699920654297	-291.1033020019532	-1983.542358398438	71.902214050293	-102.400260925293	-1741.440795898438	61.03081130981448	-113.3672027587891	-1739.063964843751	121.2056121826172	-120.5487518310547	-1744.482910156251	53.97127532958987	-173.5264892578126	-1801.966186523438	63.7486381530762	-110.6255035400391	-1594.616943359376	496.3149719238284	20.85912895202637	-1205.292602539063	640.5289306640627	64.61590576171878	-1545.120239257813	488.4446105957034	-393.5970764160159	-1736.963012695313	888.011596679688	-3.578809738159181	-1609.439086914063	98.33349609375006	5.681465148925783	-1255.43359375	80.10498809814456	137.9463195800782	-1476.667602539063	106.8959350585938	-348.5000000000001	-1595.368164062501	476.1437072753909	20.08988571166993	-1493.486206054688	92.45205688476565	63.25809478759768	-1503.186401367188	273.1871643066407	64.22061920166018	-1427.911499023438	96.86961364746099	-105.3854293823243	-1661.908569335938	83.76272583007815	-2.45824432373047	-1437.345336914063	95.34849548339847	85.16353607177737	-1440.578735351563	155.5935363769532	85.48429107666018	-1415.487182617188	96.82094573974615	28.9490432739258	-1493.486083984375	92.4519958496094	63.25815582275393	-1751.410034179688	905.5200195312505	-83.40940093994143	-1591.693481445313	891.0043334960942	-90.46478271484378	-1758.560424804688	904.7917480468755	-243.7784118652345	-1736.940917968751	1065.390625	-84.78054046630862	-1834.489990234376	475.3340148925784	-142.6790008544922	-1414.829956054688	394.626892089844	-228.8076171875001	-1922.979492187501	470.7226867675784	-569.5216064453127	-1756.378662109376	903.7163085937505	-163.5003509521485	-1938.130004882813	89.73799896240237	-91.2434005737305	-1571.147583007813	-24.83882904052736	-210.6936950683595	-2067.178955078126	73.60406494140628	-472.239929199219	-1834.483642578126	475.3339538574221	-142.6786499023438	-1806.459960937501	71.61769866943362	-87.15820312500003	-1797.478881835938	255.8067016601564	-109.2213973999024	-1820.739868164063	50.28067016601565	-271.0979919433595	-1991.415283203126	82.20898437500003	-74.02805328369143	-1744.810058593751	68.08730316162112	-91.5350036621094	-1741.816406250001	129.4835662841797	-98.88939666748053	-1749.570068359376	60.974967956543	-152.8482055664063	-1806.461791992188	71.61772918701175	-87.1582946777344	-1589.180053710938	494.9289855957034	22.95919990539551	-1179.5947265625	654.209899902344	71.53794097900393	-1534.4033203125	487.8646240234377	-415.7207031250002	-1746.437255859376	907.3246459960942	-3.318138122558596	-1604.900024414063	96.30359649658209	7.397480010986332	-1253.79248046875	75.0837097167969	196.2470092773439	-1415.513427734375	102.5525283813477	-344.0063781738282	-1589.178466796876	494.9283142089846	22.9591407775879	-1473.2900390625	93.25370025634768	45.38909912109376	-1487.336303710938	284.1055297851564	46.62602615356447	-1403.615112304688	99.53605651855474	-132.737777709961	-1650.973388671876	80.6299743652344	-24.55748748779298	-1414.06005859375	97.46160125732428	68.70459747314456	-1418.7421875	161.0788116455079	69.11690521240237	-1390.835083007813	99.55571746826178	9.329036712646488	-1473.287719726563	93.25369262695315	45.3890953063965	-1698.495239257813	972.350463867188	-217.375213623047	-1687.996215820313	971.4172363281255	45.14104461669923	-1889.113891601563	992.4147338867192	-121.6855010986329	-1885.145874023438	988.1248168945317	-20.30214309692384	-1814.153808593751	642.0318603515627	-226.1942138671876	-1682.550170898438	754.6934814453127	-204.0851135253907	-1715.179931640626	591.6043090820315	-166.0867919921876	-1843.301757812501	479.0411682128909	-198.6470031738282	-1925.288940429688	248.9102172851564	-173.2258758544922	-1819.812133789063	373.5635375976564	-112.8705215454102	-1875.000732421876	206.300506591797	-86.75142669677737	-1952.494018554688	77.04029083251956	-130.5518188476563	-1991.200805664063	54.21834564208987	-80.34053039550784	-1800.837280273438	46.03755187988283	-95.94787597656253	-1681.943847656251	698.898376464844	111.9984359741212	-1616.827636718751	801.1119995117192	26.68639945983888	-1558.322875976563	649.1712646484377	31.62871742248537	-1601.434204101563	497.3989562988284	77.94326782226565	-1634.302246093751	317.4799194335939	81.49607086181643	-1558.321777343751	346.1633605957032	7.132372379302982	-1565.518432617188	208.9767913818361	12.42585468292237	-1626.018432617188	87.4585876464844	43.83723449707033	-1651.667968750001	55.15026473999026	-16.27441215515137	-1479.74609375	68.461051940918	52.88499450683597	2.73301649093628	-16.57512283325196	-5.206362724304201	2.302618026733399	0.7034213542938235	5.429226875305178	0	0	12.56993865966798	-6.842050075531009	26.93955612182619	14.12994670867921	-4.327006340026857	-8.115606307983402	25.24797439575197	2.993534088134767	-13.62326526641846	22.59108543395997	-0.2859896123409272	1.548538923263551	5.532400608062746	0	0	5.530390262603762	-0.01351381838321686	-2.299235820770265	5.416078090667726	0.01351381838321686	2.299235820770265	5.416078090667726	6.807518005371097	-2.591045379638673	-87.42889404296878	0.3270074725151063	-21.2893466949463	-92.95340728759768	2.021529912948609	-8.941869735717777	-5.253980159759523	3.595099925994875	-6.240799903869632	5.505839824676515	-3.385689973831179	14.47990036010743	12.57489967346192	-4.070499897003176	-8.803350448608402	25.89339828491212	2.851540088653565	-21.09789848327637	23.63769912719727	-1.437019944190979	6.878409862518314	6.748829841613773	-6.839839935302738	-175.9459991455079	-93.27739715576175	-179.6019897460938	21.43840026855469	94.06379699707034	180.259994506836	-2.552959918975831	-174.811996459961	-180.259994506836	2.552959918975831	-174.811996459961	nan	nan	nan	nan	nan	nan	nan	nan	nan	0	-0.03718079626560213	0	0	-0.6384736299514773	0	0	0.007563516031950716	0	nan	nan	nan	nan	nan	nan	nan	nan	nan	nan	nan	nan	nan	nan	nan	nan	nan	nan	nan	nan	nan	nan	nan	nan	nan	nan	nan	0.05053425207734111	-0.1305908560752869	-0.3034527599811555	0.02030030824244023	0.9578075408935551	-0.3489857614040376	nan	nan	nan	-0.01428732089698315	1.732137799263001	0.338244140148163	nan	nan	nan	-0.1133619993925095	1.458639979362488	-0.06072380021214488	-0.06775929778814319	0.5847470164299013	0.0570442005991936	-0.01291820034384728	-0.001173250027932227	0.1471129953861237	0.0515571013092995	1.674919962882996	-0.1308729946613312	0.0108161997050047	0.8967869877815251	0.424113988876343	-0.0135136004537344	-0.1304370015859604	0.3256520032882692	nan	nan	nan	nan	nan	nan	5.858259010679089e-15	-13.25354957580567	-20.79391288757325	-7.29583311080933	-13.14268589019776	-119.1081695556641	nan	nan	nan	-42.5112991333008	-4.115218639373781	51.07810211181643	nan	nan	nan	-81.35340118408206	-0.6603239774703982	-23.92160034179688	-19.16550064086915	-0.5665789842605593	-30.92670059204103	-1.069609999656678	-0.08983259648084643	-4.240049839019777	-46.53359985351564	-4.630280017852785	159.0559997558594	-31.51889801025392	-12.24470043182374	-132.2920074462891	-1.505470037460328	-12.14770030975343	-0.2072550058364869	-1756.369995117188	903.7169799804692	-163.5000000000001	-1834.489990234376	475.3340148925784	-142.6790008544922	-1746.439941406251	907.3239746093755	-3.318520069122316	-1589.180053710938	494.9289855957034	22.95919990539551	-1938.130004882813	89.73799896240237	-91.2434005737305	-1604.900024414063	96.30359649658209	7.397480010986332	
129	1.28	-1730.099243164063	885.189086914063	-84.53240203857425	-1568.913940429688	869.3920898437505	-91.94951629638675	-1737.480102539063	885.9209594726567	-246.4899291992189	-1714.285278320313	1046.543334960938	-84.52395629882815	-1817.528930664063	477.0090637207034	-143.5726013183594	-1433.616943359375	393.1926574707034	-281.8370361328126	-1957.329833984376	483.8919067382815	-535.9232177734377	-1736.301147460938	885.0017700195317	-165.358139038086	-1929.007446289063	82.75038146972659	-93.91419219970706	-1574.470214843751	-32.84621429443361	-215.7810974121095	-2059.333496093751	73.00941467285159	-463.8208007812502	-1823.039306640626	457.5212402343752	-141.1180725097657	-1801.215576171876	63.56620788574222	-110.4145584106446	-1793.652709960938	244.1593170166017	-131.2236633300782	-1810.729858398438	43.16087341308595	-290.9614562988282	-1982.754516601563	72.15906524658206	-101.8191757202149	-1740.702636718751	60.70192718505862	-113.2796783447266	-1738.181640625001	120.8996124267579	-120.2161026000977	-1743.874145507813	53.90009307861331	-173.4619445800782	-1801.215576171876	63.56623077392581	-110.4144897460938	-1579.402709960938	494.2994079589846	19.03575515747071	-1191.286010742188	640.505065917969	67.26985168457034	-1526.26171875	489.8515930175784	-395.0819396972659	-1723.897216796876	885.3765258789067	-3.706592559814455	-1571.155395507813	96.17280578613287	6.43789911270142	-1217.776000976563	99.22915649414068	141.1870117187501	-1436.59912109375	110.1360549926758	-346.7523803710939	-1578.984375000001	474.1138305664065	18.39702606201173	-1454.977416992188	96.78884887695318	63.85747528076175	-1474.45703125	276.7350158691407	64.20474243164065	-1389.963989257813	104.1524276733399	-104.900489807129	-1622.768920898438	78.7512130737305	-1.570724487304688	-1399.046752929688	102.8013916015626	85.66688537597659	-1405.5400390625	162.7834625244141	85.7826843261719	-1377.375610351563	105.255958557129	29.41425704956056	-1454.977294921875	96.78884124755865	63.85745239257815	-1739.099975585938	903.2059936523442	-83.19049835205081	-1579.489379882813	887.9655761718755	-91.06852722167972	-1747.074707031251	902.5650024414067	-243.5210266113282	-1723.909912109376	1063.009643554688	-84.58489990234378	-1827.910034179688	474.0780029296877	-142.3150024414063	-1409.665283203125	388.133239746094	-230.2417297363282	-1918.237060546876	470.812194824219	-568.7850341796877	-1744.491455078126	901.4526977539067	-163.2559051513672	-1937.530029296876	90.18150329589847	-90.55259704589847	-1572.369384765626	-30.18119049072267	-209.8961181640626	-2066.810058593751	75.72708129882815	-471.5382080078127	-1827.909057617188	474.077575683594	-142.3151245117188	-1805.930053710938	71.4393005371094	-86.967399597168	-1796.164428710938	255.6046752929689	-108.8943176269532	-1820.984497070313	50.34156799316409	-270.8730468750001	-1990.784179687501	82.88678741455081	-73.14853668212893	-1744.310058593751	67.62349700927737	-91.573600769043	-1741.054809570313	129.0118865966797	-98.88256835937506	-1749.328247070313	60.59092712402347	-152.8754119873047	-1805.927978515626	71.439323425293	-86.96731567382815	-1575.650024414063	492.7409973144534	20.95840072631837	-1166.155029296875	652.5472412109377	68.56306457519534	-1522.562377929688	487.4544677734377	-417.954040527344	-1733.719482421876	904.959838867188	-3.125537872314455	-1566.930053710938	93.80449676513675	8.124799728393558	-1214.22216796875	95.49082183837893	195.1683959960939	-1380.081909179688	109.2244949340821	-344.3535156250001	-1575.643188476563	492.7409973144534	20.9584140777588	-1435.260009765625	98.46340179443365	45.75949859619142	-1460.150512695313	288.2096557617189	46.01338195800783	-1366.505249023438	107.7211227416993	-132.5950012207032	-1612.111694335938	75.35723114013675	-23.61522674560548	-1376.31005859375	106.1650009155274	68.88430023193362	-1384.60693359375	169.4136810302735	68.96892547607425	-1353.391845703125	109.2509002685547	9.432865142822269	-1435.260498046875	98.46295166015631	45.75941848754884	-1686.357910156251	969.772094726563	-217.6891326904298	-1674.393188476563	968.5857543945317	44.85129165649415	-1876.306762695313	990.428588867188	-120.5807037353516	-1871.736206054688	985.8852539062505	-19.24626541137696	-1805.899902343751	640.594421386719	-225.9010467529298	-1672.825317382813	751.7438964843752	-204.2174530029298	-1706.860107421876	589.0333251953127	-166.0689392089844	-1836.993774414063	477.9673461914065	-198.2004547119142	-1922.290649414063	249.0173950195314	-172.5714263916016	-1814.858886718751	372.1122436523439	-112.4771118164063	-1872.612670898438	205.7154388427736	-86.13417053222659	-1951.960083007813	77.51938629150393	-129.8976135253907	-1990.868408203126	54.95650863647464	-79.45325469970706	-1800.504028320313	45.90553665161134	-95.80677795410159	-1668.887939453126	695.7986450195315	111.692008972168	-1603.986450195313	797.9555664062505	25.71927642822267	-1546.160034179688	646.1658325195315	30.00885963439943	-1586.720703125001	494.9118957519534	76.06486511230472	-1609.296264648438	313.9797363281251	80.89377593994143	-1535.6865234375	346.3567504882814	6.010256767272953	-1534.304077148438	209.2016906738282	12.27075767517091	-1587.354736328126	84.60099029541018	44.55187225341798	-1611.388549804688	50.44739913940433	-15.22838497161866	-1440.418823242188	73.61811828613284	53.38629150390628	2.739029407501222	-16.79987716674805	-5.793136119842531	2.204176902770997	0.893181681632996	5.551064014434816	0	0	13.30150222778321	-7.075562953948978	27.15696525573732	14.98589229583741	-4.266363620758058	-9.007852554321293	25.72331619262697	2.558576822280885	-13.57788372039796	19.5516757965088	-0.4012059271335604	2.018047809600831	5.271945953369142	0	0	5.268649578094484	0.002975887618958952	-2.622103691101075	5.597569942474367	-0.002975887618958952	2.622103691101075	5.597569942474367	6.574658393859867	-2.707746028900147	-87.29001617431643	0.1179202646017075	-21.19151306152344	-96.13574981689459	1.980289936065675	-8.896929740905765	-5.716199874877931	3.567179918289186	-5.998569965362551	5.702829837799074	-3.50490975379944	14.29950046539307	13.23250007629395	-3.924439668655397	-8.937179565429691	26.25309944152833	2.663980007171632	-21.06590080261231	20.16860008239747	-1.370139837265015	6.725369453430179	6.483069896698002	-6.799210071563724	-175.7330017089844	-93.54360198974612	-179.9179992675782	21.25449943542481	97.44370269775396	180.2290039062501	-2.847500085830689	-174.5520019531251	-180.2290039062501	2.847500085830689	-174.5520019531251	nan	nan	nan	nan	nan	nan	nan	nan	nan	0	-0.06287528574466708	0	0	-0.6738626956939699	0	0	0.009658064693212513	0	nan	nan	nan	nan	nan	nan	nan	nan	nan	nan	nan	nan	nan	nan	nan	nan	nan	nan	nan	nan	nan	nan	nan	nan	nan	nan	nan	0.05528229102492335	-0.1420706659555436	-0.2973104715347291	0.021370068192482	0.9474145770072941	-0.35885888338089	nan	nan	nan	-0.003491926006972791	1.76048243045807	0.3113805055618287	nan	nan	nan	-0.09268599748611453	1.495849967002869	-0.02657210081815721	-0.04807920008897784	0.5989609956741335	0.07868870347738269	-0.007944709621369842	-0.003118860069662334	0.151311993598938	0.06076519936323169	1.697620034217835	-0.1202490031719208	0.02384359948337079	0.8860520124435429	0.45075199007988	-0.01966929994523526	-0.1608079969882966	0.3108510076999665	nan	nan	nan	nan	nan	nan	1.427950673557697e-14	-14.20232868194581	-20.87313461303712	-9.669440269470218	-14.06421756744385	-132.5256805419922	nan	nan	nan	-50.88199234008792	-5.006118774414064	82.36943817138675	nan	nan	nan	-65.54209899902347	-1.233129978179932	0.01199460029602051	-14.73639965057374	-0.5312100052833559	-34.94800186157228	-0.9447420239448552	-0.08293289691209796	-3.895979881286623	-61.05509948730472	-6.449170112609867	201.9160003662111	-36.51290130615236	-13.11989974975587	-153.6199951171876	-1.321769952774048	-13.06560039520264	0.9273139834403996	-1744.489990234376	901.453002929688	-163.2550048828126	-1827.910034179688	474.0780029296877	-142.3150024414063	-1733.719970703126	904.9600219726567	-3.125580072402956	-1575.650024414063	492.7409973144534	20.95840072631837	-1937.530029296876	90.18150329589847	-90.55259704589847	-1566.930053710938	93.80449676513675	8.124799728393558	
